<?xml version="1.0" encoding="utf-8"?>
<!-- Generator: Adobe Illustrator 19.1.0, SVG Export Plug-In . SVG Version: 6.00 Build 0)  -->
<svg version="1.1" xmlns="http://www.w3.org/2000/svg" xmlns:xlink="http://www.w3.org/1999/xlink" x="0px" y="0px"
	 viewBox="0 0 576 576" style="enable-background:new 0 0 576 576;" xml:space="preserve">
<style type="text/css">
	.st0{fill:#CCCCCC;}
	.st1{fill:#FFFFFF;}
</style>
<g id="Bg">
	<rect x="0" class="st0" width="576" height="576"/>
</g>
<g id="Layer_4">
	<path class="st1" d="M288,477c-107.7,0-194.9-87.4-194.9-194.9c0-107.6,87.2-194.9,194.9-194.9s194.9,87.2,194.9,194.9
		C482.9,389.4,395.9,477,288,477z M365.2,296.7c-19.1,20.9-46.8,34.1-77.2,34.1s-58.1-13.3-77.2-34.1c-37,5-53.5,41.1-59.2,81.8
		c30.2,42.6,80,70.7,136.4,70.7s106.1-28.1,136.4-70.7C418.7,337.8,402.2,301.7,365.2,296.7z M288,143c-46.1,0-83.5,37.4-83.5,83.5
		S241.9,310,288,310s83.5-37.4,83.5-83.5S334.1,143,288,143z"/>
</g>
</svg>
